# xmcd
#
# Track frame offsets: 
#        150
#        14660
#        37204
#        50829
#        74564
#        91267
#        112616
#        125867
#        150124
#        169853
#        186527
#        196567
#
# Disc length: 2893 seconds
#
# Revision: 0
# Processed by: cddbd v1.5.2PL0 Copyright (c) Steve Scherf et al.
# Submitted via: ExactAudioCopy v0.99pb3
#
DISCID=a50b4b0c
DTITLE=Various Artist - From The Country To The City
DYEAR=2009
DGENRE=Blues
TTITLE0=Eddie Taylor Jr. - Love Me While I'm Livin'
TTITLE1=Tré - Church Bell Blues
TTITLE2=Harmonica Hinds - Can't Blame Nobody
TTITLE3=Eddie Taylor Jr. - Get Out Of My House
TTITLE4=Tré - From The Country To The City
TTITLE5=Harmonica Hinds - I'm Your Lovin' Man
TTITLE6=Eddie Taylor Jr. - I Got To Find My Baby
TTITLE7=Tré - She's The Reason
TTITLE8=Harmonica Hinds - Tell Me What You Wanna Do
TTITLE9=Eddie Taylor Jr. - Crawlin' King Snake
TTITLE10=Harmonica Hinds - Preachers
TTITLE11=Tré - I Shot My Baby
EXTD=Wolf - Chicago Blues Session - Volume 71
EXTT0=
EXTT1=
EXTT2=
EXTT3=
EXTT4=
EXTT5=
EXTT6=
EXTT7=
EXTT8=
EXTT9=
EXTT10=
EXTT11=
PLAYORDER=
